<svg id="Layer_1" data-name="Layer 1" xmlns="http://www.w3.org/2000/svg" viewBox="0 0 192 192"><defs><style>.cls-1{fill:#fff;}.cls-2{fill:#cb3d54;}</style></defs><title>Icon2</title><circle class="cls-1" cx="96" cy="96" r="96"/><path class="cls-2" d="M96,183.08A87.09,87.09,0,1,1,183.08,96,87.17,87.17,0,0,1,96,183.08ZM96,11.41A84.59,84.59,0,1,0,180.58,96,84.68,84.68,0,0,0,96,11.41Z"/><path class="cls-2" d="M139.71,55H52.29a1.36,1.36,0,0,0-1.36,1.36v79.28A1.36,1.36,0,0,0,52.29,137h87.42a1.36,1.36,0,0,0,1.36-1.36V56.36A1.36,1.36,0,0,0,139.71,55ZM53.66,57.73h84.68v9.06H53.66Zm84.68,76.54H53.66V69.52h84.68Z"/><path class="cls-2" d="M131.19,61.29a1.43,1.43,0,0,0-.4,1,1.36,1.36,0,0,0,2.33,1,1.33,1.33,0,0,0,.4-1,1.35,1.35,0,0,0-.4-1A1.43,1.43,0,0,0,131.19,61.29Z"/><path class="cls-2" d="M123.89,60.9a1.37,1.37,0,1,0,1.37,1.36A1.37,1.37,0,0,0,123.89,60.9Z"/><path class="cls-2" d="M114.66,61.29a1.39,1.39,0,0,0-.4,1,1.37,1.37,0,0,0,.4,1,1.4,1.4,0,0,0,1,.4,1.43,1.43,0,0,0,1-.4,1.45,1.45,0,0,0,.39-1,1.47,1.47,0,0,0-.39-1A1.44,1.44,0,0,0,114.66,61.29Z"/><path class="cls-2" d="M117.88,88.59a5,5,0,0,0-3.55-1.47H77.67a5,5,0,0,0-5,5v21.22a5,5,0,0,0,5,5h36.66a5,5,0,0,0,5-5V92.14A5,5,0,0,0,117.88,88.59ZM117,113.36a2.7,2.7,0,0,1-2.69,2.7H77.67a2.7,2.7,0,0,1-2.69-2.7V101h42Zm0-14.67H75V95.24h42Zm0-5.78H75v-.77a2.7,2.7,0,0,1,2.69-2.69h36.66A2.7,2.7,0,0,1,117,92.14Z"/><path class="cls-2" d="M92.34,107.58a1.16,1.16,0,0,1-1.16,1.16H79.6a1.17,1.17,0,0,1,0-2.33H91.18A1.16,1.16,0,0,1,92.34,107.58Z"/><path class="cls-2" d="M92.34,111.44a1.16,1.16,0,0,1-1.16,1.16H79.6a1.17,1.17,0,0,1,0-2.33H91.18A1.16,1.16,0,0,1,92.34,111.44Z"/><path class="cls-2" d="M110.47,104.48h-1.93a3.09,3.09,0,0,0-3.09,3.1v1.93a3.09,3.09,0,0,0,3.09,3.09h1.93a3.09,3.09,0,0,0,3.09-3.09v-1.93A3.09,3.09,0,0,0,110.47,104.48Zm.77,5a.77.77,0,0,1-.77.76h-1.93a.76.76,0,0,1-.76-.76v-1.93a.76.76,0,0,1,.76-.77h1.93a.77.77,0,0,1,.77.77Z"/></svg>