<svg id="Layer_1" data-name="Layer 1" xmlns="http://www.w3.org/2000/svg" viewBox="0 0 192 192"><defs><style>.cls-1{fill:#fff;}.cls-2{fill:#cb3d54;}</style></defs><title>Icon1</title><circle class="cls-1" cx="96" cy="96" r="96"/><path class="cls-2" d="M146.23,73.88a26.34,26.34,0,0,0-51-8.85l-8.83-3.94a1.25,1.25,0,0,0-1.24,0L46.67,78.26s-.06,0-.06,0a.23.23,0,0,1-.14,0l-.07.09c-.07,0-.11.1-.16.1a1.77,1.77,0,0,0-.16.22.22.22,0,0,0-.09.14.5.5,0,0,0-.11.22.33.33,0,0,0,0,.14,1.12,1.12,0,0,0-.07.4V125.3a1.61,1.61,0,0,0,.9,1.4l38.5,17.17s0,0,.06,0a2.53,2.53,0,0,0,.55.09h0a2.18,2.18,0,0,0,.52-.09c.05,0,.06,0,.09,0L124.9,126.7a1.6,1.6,0,0,0,.91-1.4V100A26.61,26.61,0,0,0,146.23,73.88ZM85.78,64.12,94.31,68a30,30,0,0,0-.63,3.3c-.09.77-.13,1.53-.16,2.3l-28,12.56L51,79.66Zm-1.52,76L48.82,124.3V82L71,91.91l13.28,5.91Zm1.52-45L69.2,87.75,93.66,76.81A26.13,26.13,0,0,0,98.2,89.33a2.09,2.09,0,0,0,.13.23Zm37,29.14L87.31,140.16V97.82l11.3-5L97.79,101a1.51,1.51,0,0,0,.57,1.31,1.54,1.54,0,0,0,1,.36,1.51,1.51,0,0,0,.47-.09l9.83-3.16a3.07,3.07,0,0,1,2,0,26.39,26.39,0,0,0,10.91,1.17h.21Zm-.53-26.75a23.2,23.2,0,0,1-9.64-1,6.52,6.52,0,0,0-3.91,0L101.05,99l.7-7.14a6.29,6.29,0,0,0-1-4.21,23.3,23.3,0,1,1,21.52,9.94Z"/><path class="cls-2" d="M131.18,61.45,106.42,86.22a1.52,1.52,0,0,0,0,2.16,1.42,1.42,0,0,0,1.07.45,1.44,1.44,0,0,0,1.08-.45l24.76-24.76a1.53,1.53,0,0,0-2.15-2.17Z"/><path class="cls-2" d="M123.23,78.31a6.17,6.17,0,0,0,0,8.71A6.16,6.16,0,0,0,132,87a6.16,6.16,0,1,0-8.72-8.71Zm6.57,6.55a3.13,3.13,0,0,1-4.42,0,3,3,0,0,1-.91-2.17,3.08,3.08,0,0,1,.91-2.22,3.16,3.16,0,0,1,4.42,0,3.08,3.08,0,0,1,.91,2.22A3,3,0,0,1,129.8,84.86Z"/><path class="cls-2" d="M112.14,73.38a6.07,6.07,0,0,0,4.36-1.8,6.14,6.14,0,0,0,0-8.72,6.21,6.21,0,0,0-4.36-1.77,6.28,6.28,0,0,0-4.36,1.77,6.2,6.2,0,0,0,0,8.72A6.14,6.14,0,0,0,112.14,73.38ZM110,65a3,3,0,0,1,2.19-.91,3.12,3.12,0,0,1,2.21,5.33,3.18,3.18,0,0,1-4.4,0A3.13,3.13,0,0,1,110,65Z"/><path class="cls-2" d="M96,183.08A87.09,87.09,0,1,1,183.08,96,87.17,87.17,0,0,1,96,183.08ZM96,11.41A84.59,84.59,0,1,0,180.58,96,84.68,84.68,0,0,0,96,11.41Z"/></svg>