<svg id="Layer_1" data-name="Layer 1" xmlns="http://www.w3.org/2000/svg" viewBox="0 0 192 192"><defs><style>.cls-1{fill:#fff;}.cls-2{fill:#cb3d54;}</style></defs><title>Icon3</title><circle class="cls-1" cx="96" cy="96" r="96"/><path class="cls-2" d="M96,183.08A87.09,87.09,0,1,1,183.08,96,87.17,87.17,0,0,1,96,183.08ZM96,11.41A84.59,84.59,0,1,0,180.58,96,84.68,84.68,0,0,0,96,11.41Z"/><path class="cls-2" d="M79.66,122.69a1.52,1.52,0,1,0,1.52,1.5A1.53,1.53,0,0,0,79.66,122.69Z"/><path class="cls-2" d="M121.88,122.69a1.52,1.52,0,1,0,0,3,1.52,1.52,0,0,0,0-3Z"/><path class="cls-2" d="M61.91,99.83H96.17a1.37,1.37,0,0,0,1.36-1.38V68.94a1.38,1.38,0,0,0-1.36-1.37H61.91a1.4,1.4,0,0,0-1.38,1.37V98.45A1.38,1.38,0,0,0,61.91,99.83Zm1.35-29.51H94.8V97.11H63.26Z"/><path class="cls-2" d="M119.41,106.63h-5.12a1.38,1.38,0,0,0,0,2.75h5.12a1.38,1.38,0,0,0,0-2.75Z"/><path class="cls-2" d="M141,108s0-.12,0-.16l0-7.12h0c0-14.74-7.31-22.63-13.46-26.64A19.72,19.72,0,0,0,116.61,71h-9.53V59.39a1.36,1.36,0,0,0-1.37-1.34H52.36A1.36,1.36,0,0,0,51,59.39v60.23a5.94,5.94,0,0,0,5.93,5.95H70a9.73,9.73,0,0,0,19.27,0h22.95a9.73,9.73,0,0,0,19.27,0h3.54a6,6,0,0,0,5.95-5.95V108ZM79.66,131.23a7,7,0,1,1,7-7A7,7,0,0,1,79.66,131.23Zm24.69-8.37H89.29a9.73,9.73,0,0,0-19.27,0H56.93a3.24,3.24,0,0,1-3.22-3.24V109.38h50.64Zm0-16.23H53.71V60.77h50.64Zm33.9,8.9h-.77a3.08,3.08,0,1,1,0-6.15h.77Zm-23-41.85h1.37A16.91,16.91,0,0,1,126,76.39c5.41,3.52,11.82,10.32,12.21,23h-15a28.9,28.9,0,0,0-7.91-14.65Zm6.64,57.55a7,7,0,1,1,7-7A7,7,0,0,1,121.88,131.23Zm13.17-8.37h-3.54a9.73,9.73,0,0,0-19.27,0h-5.16V73.68h5.42l0,11.57a1.42,1.42,0,0,0,.42,1,26.56,26.56,0,0,1,7.43,13.08h-6.09a1.37,1.37,0,0,0-1.36,1.38,1.33,1.33,0,0,0,1.36,1.33h23.94v4.58h-.75a5.81,5.81,0,1,0,0,11.61h.79v1.38A3.24,3.24,0,0,1,135.05,122.86Z"/></svg>