<svg id="Layer_1" data-name="Layer 1" xmlns="http://www.w3.org/2000/svg" viewBox="0 0 192 192"><defs><style>.cls-1{fill:#fff;}.cls-2{fill:#cb3d54;}</style></defs><title>Icon4</title><circle class="cls-1" cx="96" cy="96" r="96"/><path class="cls-2" d="M96,183.08A87.09,87.09,0,1,1,183.08,96,87.17,87.17,0,0,1,96,183.08ZM96,11.41A84.59,84.59,0,1,0,180.58,96,84.68,84.68,0,0,0,96,11.41Z"/><path class="cls-2" d="M137.13,75.43H114.71A12.33,12.33,0,1,0,95.18,62.21,9.81,9.81,0,1,0,80.75,75.43H54.88a4.14,4.14,0,0,0-4.12,4.15v8.18a4.14,4.14,0,0,0,4.12,4.15v42.48A4.09,4.09,0,0,0,59,138.5h74a4.11,4.11,0,0,0,4.13-4.11V91.91a4.14,4.14,0,0,0,4.11-4.15V79.58A4.14,4.14,0,0,0,137.13,75.43ZM97.38,65.87A9.59,9.59,0,1,1,107,75.43H97.38V65.87Zm1,23.27h-4.8V78.2h4.8ZM80.47,68.35a7.08,7.08,0,0,1,14.16,0v7.08H87.55A7.08,7.08,0,0,1,80.47,68.35Zm-27,19.41V79.58a1.38,1.38,0,0,1,1.39-1.38h36V89.14h-36A1.38,1.38,0,0,1,53.49,87.76Zm4.13,46.63V91.91H90.86v43.86H59A1.37,1.37,0,0,1,57.62,134.39Zm36,1.38V91.91h4.8v43.86Zm40.79-1.38a1.37,1.37,0,0,1-1.38,1.38H101.14V91.91h33.24Zm4.11-46.63a1.37,1.37,0,0,1-1.36,1.38h-36V78.2h36a1.37,1.37,0,0,1,1.36,1.38Z"/></svg>