<?xml version="1.0" encoding="utf-8"?>
<!-- Generator: Adobe Illustrator 22.1.0, SVG Export Plug-In . SVG Version: 6.00 Build 0)  -->
<svg version="1.1" id="Layer_1" xmlns="http://www.w3.org/2000/svg" xmlns:xlink="http://www.w3.org/1999/xlink" x="0px" y="0px"
	 viewBox="0 0 105 62" style="enable-background:new 0 0 105 62;" xml:space="preserve">
<style type="text/css">
	.st0{clip-path:url(#SVGID_2_);}
	.st1{fill:#FFFFFF;}
	.st2{fill:#215AAA;}
	.st3{fill:#E33832;}
</style>
<g>
	<defs>
		<rect id="SVGID_1_" x="0.5" y="0.3" width="104.1" height="61.5"/>
	</defs>
	<clipPath id="SVGID_2_">
		<use xlink:href="#SVGID_1_"  style="overflow:visible;"/>
	</clipPath>
	<g class="st0">
		<g>
			<path class="st1" d="M94.7,0.3H10C4.8,0.3,0.5,4,0.5,8.5v22h103.8v-22C104.3,4,100,0.3,94.7,0.3z"/>
			<path class="st2" d="M0.5,52.2c0,5.2,4.3,9.6,9.6,9.6h84.7c5.3,0,9.6-4.3,9.6-9.6V30.5H0.5V52.2z"/>
		</g>
		<path class="st3" d="M23.9,20.4c0.2,0,0.3,0.1,0.5,0.2l1.4,1.5c-0.6,0.9-1.4,1.6-2.4,2c-1,0.5-2.1,0.7-3.4,0.7
			c-1.2,0-2.3-0.2-3.2-0.7c-1-0.4-1.8-1.1-2.4-1.9c-0.7-0.8-1.2-1.8-1.5-2.9c-0.5-0.9-0.7-2.1-0.7-3.4c0-1.3,0.2-2.5,0.6-3.6
			c0.4-1.1,0.9-2.1,1.6-2.8C15,8.6,15.8,8,16.8,7.5c1-0.4,2-0.7,3.2-0.7c1.2,0,2.2,0.2,3.1,0.6c0.9,0.4,1.7,1,2.3,1.7l-1.2,1.6
			c-0.1,0.1-0.2,0.2-0.3,0.3c-0.1,0.1-0.2,0.1-0.4,0.1c-0.2,0-0.4-0.1-0.5-0.2c-0.2-0.1-0.4-0.3-0.6-0.5c-0.3-0.2-0.6-0.3-0.9-0.5
			c-0.4-0.1-0.9-0.2-1.5-0.2c-0.6,0-1.2,0.1-1.8,0.4c-0.5,0.3-1,0.7-1.4,1.2c-0.4,0.5-0.7,1.2-0.9,1.9c-0.2,0.7-0.3,1.6-0.3,2.6
			s0.1,1.8,0.3,2.6c0.2,0.8,0.5,1.4,0.9,1.9c0.4,0.5,0.9,0.9,1.4,1.2c0.5,0.3,1.1,0.4,1.7,0.4c0.4,0,0.7,0,1-0.1
			c0.3,0,0.6-0.1,0.8-0.2c0.3-0.1,0.5-0.2,0.7-0.4c0.2-0.2,0.4-0.4,0.7-0.6c0.1-0.1,0.2-0.1,0.3-0.2C23.7,20.5,23.8,20.4,23.9,20.4z
			"/>
		<path class="st3" d="M31.1,17.9v6.9h-3.5V7h5.3c1.2,0,2.2,0.1,3,0.4c0.8,0.3,1.5,0.6,2.1,1.1c0.5,0.5,0.9,1,1.2,1.6
			c0.2,0.6,0.4,1.3,0.4,2.1c0,0.6-0.1,1.1-0.2,1.6c-0.2,0.5-0.4,1-0.7,1.4c-0.3,0.4-0.7,0.8-1.1,1.1c-0.4,0.3-1,0.6-1.5,0.8
			c0.2,0.1,0.4,0.3,0.6,0.4c0.2,0.2,0.4,0.4,0.5,0.6l3.9,6.5h-3.1c-0.6,0-1-0.2-1.3-0.7l-3.2-5.5c-0.1-0.2-0.3-0.4-0.4-0.5
			c-0.2-0.1-0.4-0.1-0.7-0.1h-1.3V17.9z M31.1,15.5h1.8c0.6,0,1.1-0.1,1.5-0.2s0.8-0.4,1-0.6c0.3-0.3,0.5-0.6,0.6-0.9
			c0.1-0.4,0.2-0.8,0.2-1.2c0-0.9-0.3-1.5-0.8-2C34.9,10,34.1,9.8,33,9.8h-1.8v5.6H31.1z"/>
		<path class="st3" d="M53.9,7v2.8h-7.3v4.7h5.6v2.7h-5.6v4.8H54V25H43V7H53.9z"/>
		<path class="st3" d="M71.5,15.9c0,1.3-0.2,2.5-0.6,3.6c-0.4,1.1-1,2-1.7,2.8c-0.7,0.8-1.6,1.4-2.7,1.8c-1.1,0.4-2.2,0.6-3.5,0.6
			h-6.6V7h6.5c1.3,0,2.5,0.2,3.5,0.7c1.1,0.4,2,1,2.7,1.8c0.7,0.8,1.3,1.7,1.7,2.8C71.3,13.4,71.5,14.6,71.5,15.9z M67.9,15.9
			c0-0.9-0.1-1.8-0.3-2.5c-0.2-0.7-0.6-1.4-1-1.9c-0.4-0.5-1-0.9-1.6-1.2c-0.6-0.3-1.3-0.4-2.1-0.4H60V22h2.9c0.8,0,1.5-0.1,2.1-0.4
			c0.6-0.3,1.1-0.7,1.6-1.2c0.4-0.5,0.8-1.2,1-1.9C67.8,17.7,67.9,16.8,67.9,15.9z"/>
		<path class="st3" d="M77.6,24.7h-3.5V7h3.5V24.7z"/>
		<path class="st3" d="M92.7,7v2.8h-4.8v14.9h-3.5V9.8h-4.8V7H92.7z"/>
		<path class="st1" d="M25.5,52.5c0,0.2,0,0.4,0,0.6c0,0.2,0,0.3-0.1,0.4c0,0.1-0.1,0.2-0.1,0.3c0,0.1-0.1,0.2-0.2,0.3
			c-0.1,0.1-0.3,0.2-0.6,0.4c-0.3,0.2-0.6,0.3-1.1,0.5c-0.5,0.2-0.9,0.3-1.4,0.4c-0.5,0.1-1.1,0.2-1.8,0.2c-1.2,0-2.3-0.2-3.3-0.6
			c-1-0.4-1.8-0.9-2.5-1.7c-0.7-0.8-1.2-1.7-1.6-2.8c-0.4-1.1-0.6-2.4-0.6-3.9s0.2-2.9,0.6-4.1c0.4-1.2,1-2.2,1.7-3S16,38,17,37.6
			s2.1-0.6,3.4-0.6c0.5,0,1,0,1.4,0.1c0.5,0.1,0.9,0.2,1.3,0.3s0.7,0.3,1.1,0.5c0.3,0.2,0.5,0.3,0.7,0.5c0.1,0.1,0.2,0.2,0.3,0.3
			c0,0.1,0.1,0.2,0.1,0.3c0,0.1,0,0.3,0.1,0.5c0,0.2,0,0.4,0,0.7c0,0.3,0,0.5,0,0.7c0,0.2-0.1,0.4-0.1,0.5c0,0.1-0.1,0.2-0.2,0.3
			c-0.1,0.1-0.1,0.1-0.2,0.1s-0.3-0.1-0.5-0.2c-0.2-0.2-0.5-0.3-0.8-0.5s-0.7-0.4-1.2-0.5c-0.5-0.1-1-0.2-1.7-0.2s-1.3,0.1-1.9,0.4
			s-1,0.7-1.4,1.3c-0.4,0.5-0.7,1.2-0.9,2c-0.2,0.8-0.3,1.6-0.3,2.6c0,1.1,0.1,2,0.3,2.7c0.2,0.8,0.5,1.4,0.9,1.9
			c0.4,0.5,0.9,0.9,1.5,1.1c0.6,0.2,1.2,0.4,1.9,0.4c0.6,0,1.2-0.1,1.7-0.2c0.5-0.2,0.9-0.3,1.2-0.5c0.3-0.2,0.6-0.4,0.8-0.5
			c0.2-0.1,0.4-0.2,0.5-0.2c0.1,0,0.2,0,0.2,0.1c0.1,0,0.1,0.1,0.1,0.2c0,0.1,0.1,0.3,0.1,0.5C25.5,51.9,25.5,52.1,25.5,52.5z"/>
		<path class="st1" d="M43.5,53.8c0.1,0.3,0.2,0.6,0.2,0.8c0,0.2,0,0.3-0.1,0.4c-0.1,0.1-0.3,0.2-0.5,0.2c-0.3,0-0.6,0-1.1,0
			c-0.5,0-0.8,0-1.1,0c-0.3,0-0.5,0-0.6-0.1c-0.1,0-0.2-0.1-0.3-0.2c-0.1-0.1-0.1-0.2-0.1-0.3L38.7,51h-6.8l-1.1,3.5
			c0,0.1-0.1,0.2-0.1,0.3c-0.1,0.1-0.2,0.2-0.3,0.2c-0.1,0.1-0.3,0.1-0.6,0.1c-0.2,0-0.6,0-1,0s-0.8,0-1,0c-0.2,0-0.4-0.1-0.5-0.2
			c-0.1-0.1-0.1-0.3-0.1-0.5c0-0.2,0.1-0.5,0.2-0.8l5.5-16c0.1-0.2,0.1-0.3,0.2-0.4c0.1-0.1,0.2-0.2,0.4-0.2
			c0.2-0.1,0.4-0.1,0.7-0.1c0.3,0,0.7,0,1.1,0c0.5,0,1,0,1.3,0c0.3,0,0.6,0,0.8,0.1c0.2,0.1,0.3,0.1,0.4,0.2
			c0.1,0.1,0.1,0.2,0.2,0.4L43.5,53.8z M35.3,40.5l-2.6,7.7h5.1L35.3,40.5z"/>
		<path class="st1" d="M60.2,54.7c0,0.1,0,0.2-0.1,0.3c0,0.1-0.1,0.1-0.3,0.2c-0.1,0-0.3,0.1-0.6,0.1s-0.6,0-1.1,0
			c-0.4,0-0.7,0-0.9,0c-0.2,0-0.4-0.1-0.5-0.1c-0.1-0.1-0.2-0.1-0.3-0.2c-0.1-0.1-0.1-0.2-0.1-0.3l-1.6-4c-0.2-0.5-0.4-0.9-0.6-1.2
			c-0.2-0.4-0.4-0.6-0.6-0.9c-0.2-0.2-0.5-0.4-0.8-0.5c-0.3-0.1-0.6-0.2-1-0.2h-1.2v6.9c0,0.1,0,0.2-0.1,0.3
			c-0.1,0.1-0.2,0.1-0.3,0.2c-0.1,0-0.3,0.1-0.6,0.1c-0.2,0-0.5,0-0.9,0c-0.4,0-0.6,0-0.9,0c-0.2,0-0.4-0.1-0.6-0.1
			c-0.1,0-0.2-0.1-0.3-0.2s-0.1-0.2-0.1-0.3V38.3c0-0.4,0.1-0.7,0.3-0.9c0.2-0.2,0.5-0.3,0.8-0.3h4.7c0.5,0,0.9,0,1.2,0
			s0.6,0,0.8,0.1c0.7,0.1,1.4,0.3,2,0.5c0.6,0.2,1.1,0.6,1.5,1c0.4,0.4,0.7,0.9,0.9,1.4c0.2,0.6,0.3,1.2,0.3,1.9
			c0,0.6-0.1,1.1-0.2,1.6c-0.2,0.5-0.4,0.9-0.7,1.3c-0.3,0.4-0.7,0.7-1.1,1c-0.4,0.3-0.9,0.5-1.5,0.7c0.3,0.1,0.5,0.3,0.8,0.5
			c0.2,0.2,0.5,0.4,0.7,0.7c0.2,0.3,0.4,0.6,0.6,0.9c0.2,0.3,0.4,0.7,0.5,1.1l1.5,3.5c0.1,0.4,0.2,0.6,0.3,0.8
			C60.1,54.5,60.2,54.6,60.2,54.7z M55.3,42.4c0-0.6-0.1-1.1-0.4-1.5c-0.3-0.4-0.7-0.7-1.3-0.9c-0.2,0-0.4-0.1-0.6-0.1
			c-0.2,0-0.6,0-1,0h-1.6V45h1.9c0.5,0,1-0.1,1.4-0.2c0.4-0.1,0.7-0.3,1-0.5c0.3-0.2,0.5-0.5,0.6-0.8C55.3,43.2,55.3,42.8,55.3,42.4
			z"/>
		<path class="st1" d="M78.4,45.8c0,1.6-0.2,3.1-0.6,4.2c-0.4,1.2-1,2.1-1.9,2.9c-0.8,0.7-1.8,1.3-2.9,1.6c-1.2,0.3-2.5,0.5-4.1,0.5
			h-4.3c-0.3,0-0.6-0.1-0.8-0.3c-0.2-0.2-0.3-0.5-0.3-0.9V38.3c0-0.4,0.1-0.7,0.3-0.9c0.2-0.2,0.5-0.3,0.8-0.3h4.6
			c1.6,0,3,0.2,4.1,0.6c1.1,0.4,2.1,0.9,2.8,1.7c0.7,0.8,1.3,1.6,1.7,2.7S78.4,44.4,78.4,45.8z M74.7,46c0-0.9-0.1-1.6-0.3-2.4
			c-0.2-0.7-0.5-1.4-1-1.9c-0.4-0.5-1-1-1.7-1.3c-0.7-0.3-1.6-0.5-2.7-0.5h-1.8v12.3H69c1,0,1.8-0.1,2.5-0.4
			c0.7-0.3,1.3-0.6,1.7-1.2c0.5-0.5,0.8-1.2,1-2C74.5,47.9,74.7,47,74.7,46z"/>
		<path class="st1" d="M92.7,49.8c0,0.9-0.2,1.8-0.5,2.5c-0.3,0.7-0.8,1.3-1.4,1.8c-0.6,0.5-1.3,0.8-2.1,1.1
			c-0.8,0.2-1.7,0.4-2.6,0.4c-0.6,0-1.2-0.1-1.7-0.2c-0.5-0.1-1-0.2-1.4-0.4c-0.4-0.1-0.7-0.3-1-0.5c-0.3-0.2-0.5-0.3-0.6-0.4
			c-0.1-0.1-0.2-0.3-0.3-0.5c-0.1-0.2-0.1-0.6-0.1-1c0-0.3,0-0.5,0-0.7c0-0.2,0-0.4,0.1-0.5c0-0.1,0.1-0.2,0.2-0.3
			c0.1-0.1,0.2-0.1,0.2-0.1c0.1,0,0.3,0.1,0.5,0.2c0.2,0.2,0.5,0.3,0.9,0.5c0.4,0.2,0.8,0.4,1.3,0.5c0.5,0.2,1.1,0.2,1.8,0.2
			c0.4,0,0.8-0.1,1.2-0.2c0.4-0.1,0.7-0.3,0.9-0.5c0.2-0.2,0.4-0.4,0.6-0.7c0.1-0.3,0.2-0.6,0.2-1c0-0.4-0.1-0.8-0.3-1
			c-0.2-0.2-0.5-0.6-0.9-0.8c-0.4-0.2-0.8-0.4-1.2-0.6c-0.5-0.2-0.9-0.4-1.4-0.6c-0.4-0.1-0.9-0.3-1.4-0.6c-0.5-0.3-0.9-0.6-1.2-1
			c-0.4-0.4-0.6-0.9-0.9-1.4c-0.3-0.5-0.3-1.2-0.3-1.9c0-0.9,0.2-1.6,0.5-2.3c0.3-0.7,0.8-1.2,1.3-1.6c0.5-0.4,1.2-0.8,1.9-1
			c0.7-0.2,1.5-0.3,2.3-0.3c0.4,0,0.9,0,1.3,0.1s0.8,0.2,1.2,0.3c0.4,0.1,0.7,0.2,1,0.4c0.3,0.1,0.5,0.3,0.6,0.3
			c0.1,0,0.2,0.2,0.2,0.2c0,0.1,0.1,0.2,0.1,0.3c0,0.1,0,0.2,0,0.4s0,0.4,0,0.6c0,0.3,0,0.5,0,0.7c0,0.2,0,0.3-0.1,0.5
			c0,0.1-0.1,0.2-0.1,0.3C91.4,41,91.4,41,91.3,41c-0.1,0-0.3-0.1-0.5-0.2c-0.2-0.1-0.5-0.3-0.8-0.4c-0.3-0.2-0.7-0.3-1.1-0.4
			c-0.4-0.1-0.9-0.2-1.4-0.2c-0.4,0-0.7,0-1,0.1c-0.3,0.1-0.5,0.2-0.7,0.4s-0.3,0.4-0.4,0.6c-0.1,0.2-0.1,0.5-0.1,0.8
			c0,0.4,0.1,0.7,0.3,1c0.2,0.3,0.5,0.6,0.9,0.8c0.4,0.2,0.8,0.4,1.2,0.6c0.5,0.2,0.9,0.4,1.4,0.6c0.5,0.2,1,0.5,1.4,0.8
			c0.5,0.3,0.9,0.6,1.2,1c0.4,0.4,0.7,0.9,0.9,1.4C92.6,48.3,92.7,49,92.7,49.8z"/>
	</g>
</g>
</svg>
